<svg width="277" height="162" viewBox="0 0 277 162" fill="none" xmlns="http://www.w3.org/2000/svg">
<path d="M200.697 61.8197C200.697 65.1892 199.151 68.2901 196.549 70.7697C195.822 71.4624 195.279 72.326 195.003 73.2911L193.118 79.8606L192.297 76.1361C192.063 75.0729 190.941 74.4585 189.924 74.8486C187.147 75.9145 183.988 76.5163 180.639 76.5163C169.555 76.5163 160.573 69.935 160.573 61.8197C160.573 53.6967 169.555 47.1154 180.639 47.1154C191.715 47.1154 200.697 53.6967 200.697 61.8197Z" fill="#CDCCCB"/>
<path d="M127.87 60.8712C127.87 64.7789 129.58 68.3458 132.409 71.0653C133.3 71.9224 133.776 73.1246 133.776 74.3613V78.521L135.787 75.0271C136.125 74.4387 136.855 74.1961 137.472 74.4799C140.058 75.6699 143.023 76.3425 146.172 76.3425C156.281 76.3425 166.723 70.3332 166.723 61.7806C166.723 56.465 164.246 44.6235 142.927 45.6453C132.829 46.1293 127.87 52.3263 127.87 60.8712Z" fill="#E1DFDD"/>
<path d="M166.72 61.7825C166.72 64.695 165.509 67.3125 163.512 69.4971C161.643 67.263 160.57 64.6359 160.57 61.8219C160.57 58.624 161.957 55.6722 164.319 53.2618C166.307 56.3116 166.72 59.5984 166.72 61.7825Z" fill="#B3AFAB"/>
<path d="M174.89 63.5757C175.832 63.5757 176.597 62.8114 176.597 61.8686C176.597 60.9258 175.832 60.1615 174.89 60.1615C173.947 60.1615 173.182 60.9258 173.182 61.8686C173.182 62.8114 173.947 63.5757 174.89 63.5757Z" fill="#F9F8F6"/>
<path d="M182.004 63.4027C182.947 63.4027 183.712 62.6384 183.712 61.6956C183.712 60.7528 182.947 59.9885 182.004 59.9885C181.062 59.9885 180.297 60.7528 180.297 61.6956C180.297 62.6384 181.062 63.4027 182.004 63.4027Z" fill="#F9F8F6"/>
<path d="M188.679 63.5757C189.622 63.5757 190.386 62.8114 190.386 61.8686C190.386 60.9258 189.622 60.1615 188.679 60.1615C187.736 60.1615 186.972 60.9258 186.972 61.8686C186.972 62.8114 187.736 63.5757 188.679 63.5757Z" fill="#F9F8F6"/>
<path d="M128.511 33.7367C128.164 42.7135 122.393 45.3282 122.196 46.201L121.598 51.1391C121.598 51.1391 120.144 45.3593 113.4 46.4921C96.16 49.3879 87.6651 42.8279 87.6374 33.7367C87.6102 24.8411 96.786 19.6523 108.077 19.6523C119.363 19.6523 128.855 24.8491 128.511 33.7367Z" fill="#E1DFDD"/>
<path d="M101.032 35.3597C101.933 35.3597 102.664 34.6292 102.664 33.728C102.664 32.8269 101.933 32.0963 101.032 32.0963C100.131 32.0963 99.4002 32.8269 99.4002 33.728C99.4002 34.6292 100.131 35.3597 101.032 35.3597Z" fill="#F9F8F6"/>
<path d="M108.179 35.204C109.08 35.204 109.811 34.4734 109.811 33.5723C109.811 32.6711 109.08 31.9406 108.179 31.9406C107.278 31.9406 106.548 32.6711 106.548 33.5723C106.548 34.4734 107.278 35.204 108.179 35.204Z" fill="#F9F8F6"/>
<path d="M115.032 35.0945C115.933 35.0945 116.664 34.3639 116.664 33.4628C116.664 32.5616 115.933 31.8311 115.032 31.8311C114.131 31.8311 113.4 32.5616 113.4 33.4628C113.4 34.3639 114.131 35.0945 115.032 35.0945Z" fill="#F9F8F6"/>
<path d="M151.247 59.1047H138.931C138.253 59.1047 137.704 58.5552 137.704 57.8773V57.7908C137.704 57.1129 138.253 56.5634 138.931 56.5634H151.247C151.924 56.5634 152.474 57.1129 152.474 57.7908V57.8773C152.474 58.5552 151.924 59.1047 151.247 59.1047Z" fill="#F9F8F6"/>
<path d="M155.752 65.1758H138.931C138.253 65.1758 137.704 64.6263 137.704 63.9484V63.862C137.704 63.1841 138.253 62.6346 138.931 62.6346H155.752C156.43 62.6346 156.979 63.1841 156.979 63.862V63.9485C156.979 64.6263 156.43 65.1758 155.752 65.1758Z" fill="#F9F8F6"/>
<path d="M109.329 53.084H94.7634C89.7366 53.084 85.6617 57.159 85.6617 62.1857V69.5478C85.6617 74.0746 88.9699 77.8189 93.2984 78.521C93.4546 79.0587 93.4854 79.6378 93.362 80.2037L92.8234 82.6731C92.8234 82.6731 94.5964 80.1658 95.9255 78.9706C96.0995 78.8142 96.2864 78.7206 96.4685 78.6496H98.2113C99.118 78.7424 100.145 78.7511 101.243 78.6496H109.329C114.356 78.6496 118.431 74.5746 118.431 69.5478V62.1857C118.431 57.159 114.356 53.084 109.329 53.084Z" fill="#CDCCCB"/>
<path d="M93.8341 64.3973H104.087C104.651 64.3973 105.109 63.9398 105.109 63.3755V63.3035C105.109 62.7392 104.651 62.2817 104.087 62.2817H93.8341C93.2698 62.2817 92.8123 62.7392 92.8123 63.3035V63.3755C92.8123 63.9398 93.2698 64.3973 93.8341 64.3973Z" fill="#F9F8F6"/>
<path d="M93.8563 69.4518H107.86C108.425 69.4518 108.882 68.9943 108.882 68.43V68.358C108.882 67.7937 108.425 67.3362 107.86 67.3362H93.8563C93.292 67.3362 92.8345 67.7937 92.8345 68.358V68.43C92.8345 68.9943 93.292 69.4518 93.8563 69.4518Z" fill="#F9F8F6"/>
<path d="M161.787 12.0583H142.829C138.923 12.0583 135.757 15.2244 135.757 19.13V30.5523C135.757 34.4578 138.923 37.624 142.829 37.624H149.68C150.737 37.6983 151.813 37.6833 152.81 37.624H156.987C157.08 37.6784 157.176 37.7251 157.265 37.799C158.757 39.0343 160.77 41.6008 160.77 41.6008L160.116 39.1031C159.986 38.6061 159.978 38.1003 160.082 37.624H161.787C165.693 37.624 168.859 34.4578 168.859 30.5523V19.13C168.859 15.2244 165.692 12.0583 161.787 12.0583Z" fill="#CDCCCB"/>
<path d="M145.13 22.3622H155.383C155.947 22.3622 156.405 21.9047 156.405 21.3404V21.2684C156.405 20.7041 155.947 20.2466 155.383 20.2466H145.13C144.566 20.2466 144.108 20.7041 144.108 21.2684V21.3404C144.108 21.9047 144.566 22.3622 145.13 22.3622Z" fill="#F9F8F6"/>
<path d="M145.152 27.4166H159.156C159.72 27.4166 160.178 26.9591 160.178 26.3948V26.3228C160.178 25.7585 159.72 25.301 159.156 25.301H145.152C144.588 25.301 144.13 25.7585 144.13 26.3228V26.3948C144.13 26.9591 144.588 27.4166 145.152 27.4166Z" fill="#F9F8F6"/>
<path d="M202.633 151.129H193.846C176.279 151.129 162.038 136.888 162.038 119.322V117.08C162.038 99.5134 176.279 85.2728 193.846 85.2728H202.633C220.2 85.2728 234.44 99.5134 234.44 117.08V119.322C234.44 136.888 220.2 151.129 202.633 151.129Z" fill="#E1DFDD"/>
<path d="M188.583 108.218L188.585 108.222C188.551 108.222 188.515 108.219 188.48 108.218L188.583 108.218Z" fill="#BBB0D6"/>
<path d="M190.796 87.6697L190.681 101.138C190.67 102.536 191.22 103.815 192.121 104.758C192.438 105.108 192.819 105.405 193.235 105.649C193.989 106.101 194.86 106.358 195.786 106.366L205.753 106.451C206.163 106.454 206.555 106.413 206.939 106.319C206.948 106.319 206.948 106.319 206.957 106.319C207.555 106.172 208.127 105.937 208.62 105.593L208.629 105.594C210.009 104.67 210.931 103.101 210.946 101.311L211.029 91.6103C211.03 91.3965 211.024 91.1916 211.017 90.9778C210.954 89.9527 210.713 88.962 210.329 88.0589C209.438 85.9489 207.76 84.251 205.656 83.3423C204.973 83.0335 204.236 82.8134 203.47 82.7091C203.364 82.6904 203.257 82.6716 203.15 82.6618C203.106 82.6525 203.052 82.6431 203.008 82.6427C202.723 82.6135 202.438 82.5933 202.153 82.5908L195.989 82.5382C195.909 82.5375 195.829 82.5368 195.749 82.5451C195.713 82.5448 195.686 82.5357 195.659 82.5443C195.544 82.5522 195.437 82.5602 195.329 82.5772C194.812 82.6352 194.321 82.7735 193.865 82.9745C193.713 83.0445 193.57 83.1147 193.427 83.2024C192.496 83.729 191.749 84.5332 191.296 85.5004C191.078 85.9618 190.923 86.4591 190.847 86.9842C190.819 87.2066 190.798 87.438 190.796 87.6697Z" fill="#BF8F68"/>
<path d="M232.793 129.862V129.873C228.611 142.231 216.911 151.126 203.146 151.126H193.336C180.318 151.126 169.16 143.185 164.447 131.89C170.475 121.583 181.054 114.204 193.468 112.433C195.359 112.163 201.718 112.079 202.925 112.187C215.406 113.302 226.234 120.057 232.793 129.862Z" fill="#009EA6"/>
<path d="M210.845 113.699L202.306 117.698C200.554 118.519 198.483 118.232 197.02 116.965L192.048 112.661C193.504 112.364 198.433 112.142 200.843 112.142C201.808 112.142 202.585 112.157 202.929 112.179C205.891 112.385 208.11 113.029 210.845 113.699Z" fill="#E0BB95"/>
<path d="M133.398 116.257C133.398 116.257 131.907 114.666 130.513 114.022C128.729 113.198 125.635 113.364 125.635 113.364C125.635 113.364 123.769 112.801 122.209 112.255C120.522 111.665 119.021 110.293 117.955 109.868C116.38 109.24 115.935 110.512 117.229 111.123C118.705 111.853 120.501 114.765 122.695 115.671C124.973 116.612 132.322 119.052 132.322 119.052L133.398 116.257Z" fill="#E0BB95"/>
<path d="M134.819 117.699C134.819 117.699 133.499 116.343 132.671 115.538C130.413 113.339 128.061 113.543 126.947 112.949C125.744 112.307 124.437 110.604 123.683 110.158C122.569 109.499 121.705 110.707 122.608 111.32C123.632 112.045 124.957 114.953 126.505 115.894C128.111 116.872 132.72 119.259 132.72 119.259L134.819 117.699Z" fill="#E0BB95"/>
<path d="M134.302 116.941C133.642 117.731 129.906 121.545 127.763 123.71C137.773 154.654 167.198 155.67 188.643 142.644C185.016 135.833 176.629 120.999 175.766 119.499C158.203 131.983 152.847 134.595 134.302 116.941Z" fill="#009EA6"/>
<path d="M185.9 135.028H183.303C182.822 135.028 182.431 134.637 182.431 134.155V131.751C182.431 130.552 183.403 129.58 184.602 129.58C185.801 129.58 186.773 130.552 186.773 131.751V134.155C186.773 134.637 186.382 135.028 185.9 135.028Z" fill="#C3C3E1"/>
<path d="M185.602 131.655H183.602V118.787C183.602 114.132 187.39 110.344 192.045 110.344H208.385C212.473 110.344 215.799 113.67 215.799 117.758V122.495H213.799V117.758C213.799 114.772 211.371 112.344 208.385 112.344H192.045C188.493 112.344 185.602 115.234 185.602 118.787V131.655Z" fill="#F3F2F1"/>
<path d="M217.565 135.413C217.012 135.413 216.565 134.966 216.565 134.413C216.565 133.86 217.012 133.413 217.565 133.413C218.585 133.413 219.416 132.582 219.416 131.561V126.883C219.416 124.765 217.694 123.042 215.576 123.042H214.023C211.905 123.042 210.182 124.765 210.182 126.883V131.561C210.182 132.582 211.013 133.413 212.035 133.413C212.587 133.413 213.035 133.86 213.035 134.413C213.035 134.966 212.587 135.413 212.035 135.413C209.911 135.413 208.182 133.686 208.182 131.561V126.883C208.182 123.662 210.802 121.042 214.023 121.042H215.576C218.796 121.042 221.416 123.662 221.416 126.883V131.561C221.416 133.686 219.689 135.413 217.565 135.413Z" fill="#C3C3E1"/>
<path d="M192.244 90.8185L192.048 112.661L210.845 113.699L211.039 90.9788L192.244 90.8185Z" fill="#E0BB95"/>
<path d="M193.134 90.809L193.087 96.3162L210.992 96.4684L211.039 90.9612L193.134 90.809Z" fill="#BF8F68"/>
<path d="M210.084 90.6535L209.969 104.125C209.945 106.974 206.928 109.279 203.266 109.248L194.82 109.176C191.157 109.145 188.18 106.788 188.205 103.94L188.32 90.4679C188.344 87.6193 191.36 85.3143 195.023 85.3455L203.469 85.4175C207.132 85.4487 210.108 87.8049 210.084 90.6535Z" fill="#E0BB95"/>
<path d="M188.295 100.268C188.298 100.295 188.3 100.319 188.304 100.345L188.297 100.344L188.295 100.268Z" fill="#9C96AE"/>
<path d="M201.203 102.317C201.178 105.255 199.582 107.811 197.22 109.196C196.007 109.908 194.591 110.311 193.083 110.298C188.637 110.26 185.064 106.626 185.102 102.179C185.112 100.938 185.403 99.7654 185.912 98.7199C186.468 97.5851 187.279 96.6 188.274 95.8415C189.645 94.7953 191.362 94.1805 193.22 94.1963C195.883 94.219 198.235 95.532 199.682 97.5384C200.653 98.8815 201.218 100.534 201.203 102.317Z" fill="#E0BB95"/>
<path d="M214.266 96.4954C214.282 94.6866 212.828 93.2079 211.019 93.1925C209.21 93.1771 207.732 94.631 207.716 96.4398C207.701 98.2485 209.155 99.7273 210.963 99.7427C212.772 99.7581 214.251 98.3042 214.266 96.4954Z" fill="#E0BB95"/>
<path d="M210.099 88.8717L210 100.478L199.581 110.353L193.229 110.299C188.585 110.298 185.121 106.714 185.102 102.285C185.096 101.005 185.389 99.7951 185.912 98.72L201.946 98.8459C203.728 98.8593 205.185 97.4258 205.2 95.6428L205.259 88.8304L210.099 88.8717Z" fill="#BF8F68"/>
<path d="M197.6 110.379H200.136C205.604 110.379 210.036 105.946 210.036 100.478V96.2281L203.63 98.9837L197.6 110.379Z" fill="#BF8F68"/>
<path d="M202.038 84.4513C202.036 84.7451 202.051 85.0214 202.076 85.2978C202.075 85.3154 202.084 85.3425 202.084 85.3601C202.124 85.9128 202.226 86.4572 202.382 86.9751C202.382 86.984 202.382 86.984 202.391 86.993C202.781 88.288 203.457 89.4608 204.357 90.4217C204.498 90.5832 204.648 90.7358 204.808 90.8799C205.028 91.0956 205.267 91.2936 205.515 91.4738C206.568 92.2668 207.82 92.8297 209.172 93.0728C209.554 93.1385 209.946 93.1864 210.346 93.1985C210.355 93.1986 210.355 93.1986 210.365 93.1987C210.453 93.2086 210.551 93.2094 210.64 93.2102C210.765 93.2113 210.89 93.2123 211.014 93.1956L211.029 91.503C211.031 91.2892 211.024 91.0843 211.017 90.8704C210.954 89.8453 210.713 88.8546 210.329 87.9515C209.438 85.8415 207.76 84.1436 205.657 83.2349C204.973 82.9261 204.236 82.706 203.471 82.6016C203.159 82.5989 202.74 82.6043 202.25 82.5912C202.222 82.7334 202.194 82.8667 202.167 83.0002C202.082 83.4717 202.043 83.9613 202.038 84.4513Z" fill="#BF8F68"/>
<path d="M195.458 101.832C195.797 101.867 196.108 101.9 196.409 101.898C196.709 101.892 196.994 101.859 197.264 101.78C197.534 101.702 197.784 101.577 198.029 101.415C198.271 101.25 198.499 101.042 198.745 100.807L198.747 100.806C198.785 100.769 198.846 100.771 198.882 100.809C198.904 100.832 198.912 100.863 198.907 100.892C198.787 101.592 198.207 102.244 197.458 102.449C197.088 102.554 196.698 102.559 196.34 102.474C195.982 102.393 195.651 102.232 195.383 101.999C195.343 101.964 195.339 101.904 195.374 101.864C195.395 101.84 195.425 101.829 195.455 101.832L195.458 101.832Z" fill="#767677"/>
<path d="M203.589 87.1603L195.768 87.1293L193.221 87.1165L190.289 87.145L189.826 87.15C189.826 87.15 188.31 86.3443 188.462 84.1008C188.535 82.9968 188.881 82.0911 189.207 81.4525C189.56 80.805 189.883 80.4337 189.883 80.4337C189.883 80.4337 190.093 80.9433 190.721 81.4654C191.269 81.9244 192.147 82.3951 193.482 82.5401C193.74 82.5691 194.631 82.6034 195.806 82.6223C196.474 82.6456 197.232 82.6612 198.033 82.6767C198.06 82.6682 198.086 82.6772 198.122 82.6775L203.627 82.7244L203.589 87.1603Z" fill="#BF8F68"/>
<path d="M199.483 95.6745C199.489 94.9558 199.167 94.3705 198.763 94.3671C198.36 94.3636 198.028 94.9434 198.021 95.662C198.015 96.3807 198.338 96.966 198.741 96.9695C199.145 96.9729 199.477 96.3931 199.483 95.6745Z" fill="#33312D"/>
<path d="M188.434 87.9379L188.173 108.328L194.668 108.498L194.928 88.1082L188.434 87.9379Z" fill="url(#paint0_radial_1533_41636)"/>
<path d="M191.772 95.6091C191.778 94.8904 191.456 94.3051 191.052 94.3016C190.648 94.2982 190.316 94.878 190.31 95.5966C190.304 96.3153 190.626 96.9006 191.03 96.904C191.433 96.9075 191.766 96.3277 191.772 95.6091Z" fill="#33312D"/>
<path d="M191.424 99.4405C191.412 99.4405 191.4 99.4405 191.387 99.4405C190.232 99.4307 189.15 98.9708 188.339 98.1466C187.529 97.3224 187.088 96.2325 187.098 95.0763C187.118 92.7033 189.056 90.7863 191.425 90.7863C191.437 90.7863 191.449 90.7863 191.462 90.7863C192.617 90.797 193.7 91.256 194.51 92.0802C195.321 92.9044 195.761 93.9952 195.751 95.1505C195.731 97.5235 193.793 99.4405 191.424 99.4405ZM191.425 91.8389C189.632 91.8389 188.165 93.2891 188.151 95.086C188.143 95.96 188.476 96.7852 189.089 97.4092C189.703 98.0332 190.522 98.3809 191.397 98.3877C193.177 98.3867 194.683 96.9463 194.699 95.1406C194.706 94.2666 194.373 93.4414 193.76 92.8174C193.147 92.1944 192.328 91.8467 191.453 91.8389C191.444 91.8389 191.434 91.8389 191.425 91.8389Z" fill="#6E6FAC"/>
<path d="M194.993 98.8005C194.731 98.7983 194.48 98.748 194.249 98.6582C194.009 98.5652 192.709 98.0527 192.892 96.6636C193.087 95.183 194.713 94.8334 195.029 94.5628C195.576 94.0943 195.576 93.6558 195.576 93.6558C196.741 93.6657 197.139 95.5343 197.13 96.6997C197.12 97.8651 196.158 98.8104 194.993 98.8005Z" fill="#E0BB95"/>
<path d="M199.584 99.5098C199.571 99.5098 199.558 99.5098 199.544 99.5098C197.16 99.4893 195.235 97.5323 195.254 95.1455C195.276 92.7725 197.213 90.8555 199.583 90.8555C199.594 90.8555 199.607 90.8555 199.62 90.8555C202.005 90.877 203.929 92.835 203.909 95.2207C203.899 96.376 203.44 97.458 202.616 98.2686C201.8 99.0694 200.725 99.5098 199.584 99.5098ZM196.307 95.1553C196.291 96.961 197.748 98.4424 199.554 98.4571C200.415 98.4571 201.254 98.1319 201.877 97.5186C202.501 96.9053 202.849 96.086 202.856 95.211C202.872 93.4053 201.415 91.9239 199.61 91.9083C197.781 91.8789 196.323 93.3496 196.307 95.1553Z" fill="#6E6FAC"/>
<path d="M203.636 94.5717L203.627 95.6245L210.043 95.6791L210.052 94.6263L203.636 94.5717Z" fill="#6E6FAC"/>
<path d="M194.058 101.126C194.319 102.573 195.706 103.535 197.152 103.274C198.599 103.012 199.561 101.626 199.3 100.179L194.058 101.126Z" fill="#33312D"/>
<path d="M194.058 101.126C194.083 101.261 194.117 101.393 194.16 101.521C194.977 101.621 195.898 101.597 196.852 101.424C197.781 101.257 198.626 100.968 199.343 100.605C199.341 100.463 199.326 100.324 199.3 100.179L194.058 101.126Z" fill="#F3F2F1"/>
<path d="M80.9472 151.129H74.3669C56.8003 151.129 42.5597 136.888 42.5597 119.322V118.628C42.5597 101.062 56.8003 86.821 74.3669 86.821H80.9472C98.5138 86.821 112.754 101.062 112.754 118.628V119.322C112.754 136.888 98.5138 151.129 80.9472 151.129Z" fill="#E1DFDD"/>
<path d="M90.7049 134.473V152.655C84.9679 154.611 66.2729 154.481 60.4508 147.724C60.4467 127.713 70.5013 122.163 70.5013 122.163V122.171C72.4018 121.187 74.5593 120.622 76.8535 120.622C84.5069 120.622 90.7049 126.82 90.7049 134.473Z" fill="#8B8CC4"/>
<path d="M84.5658 152.959H116.201L122.417 134.927C122.656 134.232 122.14 133.508 121.405 133.508H92.2637C91.6692 133.508 91.1403 133.885 90.9465 134.447L84.5658 152.959Z" fill="#28C2D1"/>
<path d="M53.3292 101.304C53.3375 101.299 53.3375 101.299 53.3375 101.299C53.3326 101.291 53.3275 101.283 53.3275 101.283C53.3221 101.274 53.317 101.267 53.3122 101.259C52.4533 99.9024 52.7047 98.17 53.8208 97.0921C52.36 96.578 51.4202 95.094 51.6391 93.5051C51.863 91.9242 53.1661 90.7507 54.7092 90.6494C53.9213 89.3162 54.1546 87.5723 55.3441 86.5038C56.5366 85.4225 58.29 85.3692 59.5304 86.2808C59.7855 84.7482 61.0828 83.5664 62.6862 83.507C64.2894 83.4468 65.6633 84.5329 66.0365 86.0277C67.211 85.0247 68.9622 84.9496 70.2307 85.9228C71.4957 86.9087 71.8586 88.6353 71.1836 90.0188C72.7224 89.9993 74.1205 91.0702 74.4577 92.6327C74.8001 94.203 73.9711 95.7513 72.5574 96.3766C73.7491 97.3531 74.1357 99.0645 73.3961 100.488C72.6438 101.909 71.0154 102.569 69.5295 102.139C69.7831 103.462 69.1953 104.824 68.0477 105.551C67.887 105.652 67.7081 105.743 67.5332 105.821C66.0459 106.437 64.3722 105.888 63.5088 104.614C62.7556 105.946 61.13 106.626 59.6079 106.14C58.0777 105.659 57.146 104.17 57.3056 102.63C55.8624 103.173 54.1828 102.651 53.3292 101.304Z" fill="#E0BB95"/>
<path d="M53.3292 101.304C53.3375 101.299 53.3375 101.299 53.3375 101.299C53.3326 101.291 53.3275 101.283 53.3275 101.283C53.3221 101.274 53.317 101.267 53.3122 101.259C52.4533 99.9024 52.7047 98.17 53.8208 97.0921C52.36 96.578 51.4202 95.094 51.6391 93.5051C51.863 91.9242 53.1661 90.7507 54.7092 90.6494C53.9213 89.3162 54.1546 87.5723 55.3441 86.5038C56.5366 85.4225 58.29 85.3692 59.5304 86.2808C59.7855 84.7482 61.0828 83.5664 62.6862 83.507C64.2894 83.4468 65.6633 84.5329 66.0365 86.0277C67.211 85.0247 68.9622 84.9496 70.2307 85.9228C71.4957 86.9087 71.8586 88.6353 71.1836 90.0188C72.7224 89.9993 74.1205 91.0702 74.4577 92.6327C74.8001 94.203 73.9711 95.7513 72.5574 96.3766C73.7491 97.3531 74.1357 99.0645 73.3961 100.488C72.6438 101.909 71.0154 102.569 69.5295 102.139C69.7831 103.462 69.1953 104.824 68.0477 105.551C67.887 105.652 67.7081 105.743 67.5332 105.821C66.0459 106.437 64.3722 105.888 63.5088 104.614C62.7556 105.946 61.13 106.626 59.6079 106.14C58.0777 105.659 57.146 104.17 57.3056 102.63C55.8624 103.173 54.1828 102.651 53.3292 101.304Z" fill="url(#paint1_radial_1533_41636)"/>
<path d="M80.0543 113.972L79.2137 114.224C72.9019 116.11 66.2559 112.523 64.3694 106.211L64.1182 105.37C62.2783 99.2142 65.7773 92.7321 71.9334 90.8921L73.056 90.5567C79.2121 88.7168 85.6941 92.2158 87.5341 98.3719L87.8696 99.4945C89.7094 105.65 86.2104 112.132 80.0543 113.972Z" fill="#E0BB95"/>
<path d="M70.4969 122.161C70.4969 122.161 71.7986 124.527 76.81 124.83C79.578 124.833 82.2769 123.483 83.1231 122.159C80.5549 120.622 80.6752 120.518 80.4244 118.241C80.151 115.76 80.0673 112.555 80.0673 112.555L71.4898 111.475C71.4898 111.475 72.8625 116.689 72.5527 119.481C72.3778 121.058 70.4969 122.161 70.4969 122.161Z" fill="url(#paint2_radial_1533_41636)"/>
<path d="M83.4291 116.058L82.7368 116.264C77.4072 117.857 71.7953 114.828 70.2023 109.499L69.2466 106.301C67.6945 101.109 70.6455 95.6412 75.838 94.0888L76.7465 93.8172C81.5272 92.3879 86.5613 95.105 87.9903 99.8859L89.4757 104.856C90.8992 109.619 88.1921 114.634 83.4291 116.058Z" fill="#9B643D"/>
<path d="M85.7432 99.6191L88.6161 109.367L83.189 110.63L80.5751 101.885L85.7432 99.6191Z" fill="url(#paint3_radial_1533_41636)"/>
<path d="M69.2693 105.961C67.4932 106.408 66.416 108.21 66.8631 109.986C67.3102 111.762 69.1123 112.839 70.8882 112.392L71.9712 112.12L69.2693 105.961Z" fill="#9B643D"/>
<path d="M76.0154 106.498C75.9224 105.765 76.3403 104.977 77.1451 104.622C77.5213 104.495 77.9687 104.433 78.3778 104.591C78.785 104.749 79.0805 105.033 79.2193 105.425C79.2673 105.561 79.196 105.71 79.0601 105.758C78.9986 105.78 78.9341 105.777 78.8776 105.755L78.7902 105.72C78.286 105.52 77.9593 105.513 77.5801 105.698C77.2266 105.798 76.9336 106.175 76.5571 106.605L76.516 106.651C76.4116 106.771 76.2303 106.783 76.1109 106.678C76.0565 106.63 76.024 106.565 76.0154 106.498Z" fill="#231F20"/>
<path d="M83.7139 104.181C83.6208 103.448 84.0385 102.66 84.8436 102.305C85.2194 102.178 85.6669 102.116 86.0761 102.273C86.4834 102.432 86.7791 102.715 86.9176 103.108C86.9656 103.244 86.8944 103.393 86.7585 103.441C86.6968 103.462 86.6324 103.46 86.576 103.437L86.4886 103.403C85.9841 103.203 85.6577 103.196 85.2783 103.38C84.9248 103.481 84.6319 103.857 84.2553 104.288L84.2142 104.334C84.1098 104.453 83.9285 104.465 83.8093 104.361C83.7545 104.313 83.7225 104.248 83.7139 104.181Z" fill="#231F20"/>
<path d="M79.8651 107.111C80.2506 107.87 82.758 109.188 82.758 109.188C82.758 109.188 82.6037 108.517 83.2536 108.069C84.3004 107.346 84.5106 105.881 83.7628 104.852C83.2097 104.091 82.6675 103.986 81.807 103.789C81.0376 103.614 80.7825 102.631 80.7825 102.631C80.7825 102.631 78.8517 105.114 79.8651 107.111Z" fill="#9B643D"/>
<path d="M83.5852 110.232C83.869 110.219 84.105 110.473 84.0521 110.752C83.8527 111.807 82.9443 112.625 81.8247 112.674C80.7135 112.723 79.7378 111.989 79.4462 110.956C79.369 110.682 79.5817 110.409 79.8655 110.396L83.5852 110.232Z" fill="#6D3713"/>
<path d="M70.869 101.276C72.5739 101.276 73.9559 99.8938 73.9559 98.189C73.9559 96.4841 72.5739 95.1021 70.869 95.1021C69.1642 95.1021 67.7821 96.4841 67.7821 98.189C67.7821 99.8938 69.1642 101.276 70.869 101.276Z" fill="#E0BB95"/>
<path d="M68.8251 106.033C70.3067 106.033 71.5077 104.832 71.5077 103.35C71.5077 101.869 70.3067 100.667 68.8251 100.667C67.3436 100.667 66.1425 101.869 66.1425 103.35C66.1425 104.832 67.3436 106.033 68.8251 106.033Z" fill="#E0BB95"/>
<path d="M83.8513 110.295C83.4225 110.776 82.4812 111.09 81.3992 111.057C80.6672 111.034 80.0038 110.855 79.5264 110.585C79.5934 110.476 79.7229 110.408 79.8667 110.397L83.5826 110.232C83.6782 110.226 83.773 110.253 83.8513 110.295Z" fill="white"/>
<path d="M82.6422 154.541L64.2309 155.406L64.5188 148.494L82.6651 152.2L82.6422 154.541Z" fill="#9B643D"/>
<path d="M70.8597 155.206L60.948 155.663C56.9025 155.663 54.2024 151.492 55.859 147.801L64.0863 129.881L72.3465 134.19L64.5361 148.477L70.9121 149.779L70.8597 155.206Z" fill="#8B8CC4"/>
<path d="M81.5956 154.375C81.5956 154.375 83.1422 154.912 84.2706 155.06C85.7144 155.249 87.7007 154.681 87.7007 154.681C87.7007 154.681 89.1339 154.656 90.3518 154.691C91.668 154.728 93.058 155.393 93.9037 155.456C95.1532 155.549 95.1325 154.494 94.0816 154.348C92.8747 154.155 90.8846 152.412 89.1364 152.26C87.3208 152.101 81.6184 152.034 81.6184 152.034L81.5956 154.375Z" fill="#9B643D"/>
<path d="M86.4809 46.1217C86.2204 46.2107 84.7355 46.8041 84.4123 47.2597C84.0224 47.8093 82.3908 50.4742 82.3908 50.4742C82.3908 50.4742 82.1941 47.0967 80.093 46.3024C77.2791 45.2385 74.8786 43.4459 73.9401 40.5718C72.3467 35.7268 74.3021 29.9971 79.5417 27.9834C85.9438 25.5229 91.6621 29.2599 93.2503 34.1136C94.8435 38.9585 91.8157 44.3413 86.4809 46.1217Z" fill="#B4EAF0"/>
<path d="M87.6393 33.7397C87.6491 37.2426 88.9184 40.3617 91.4571 42.7135C93.4545 40.2829 94.2319 37.0951 93.2479 34.114C92.5198 31.8799 90.9258 29.8928 88.7807 28.6331C88.0329 30.158 87.6294 31.8703 87.6393 33.7397Z" fill="#28C2D1"/>
<path d="M188.406 41.3764C189.703 41.8105 191.265 44.336 191.265 44.336C191.265 44.336 190.491 40.8126 192.284 39.6177C194.685 38.0173 196.365 35.728 196.564 32.6022C196.965 26.2901 192.23 21.4851 186.634 21.4067C181.037 21.3283 176.094 24.3898 176.176 31.0404C176.301 41.2993 187.025 40.9142 188.406 41.3764Z" fill="#B4EAF0"/>
<path d="M186.669 25.8081C186.913 25.7773 187.153 25.793 187.386 25.8535C187.621 25.9165 187.838 26.0229 188.036 26.1699C188.234 26.3174 188.395 26.499 188.518 26.7138C188.643 26.9306 188.72 27.1591 188.749 27.3993C188.779 27.6381 188.772 27.892 188.728 28.1615C188.645 28.6791 188.537 29.1918 188.403 29.6967C188.271 30.2021 188.144 30.7079 188.022 31.2182C187.985 31.3603 187.953 31.5029 187.926 31.643C187.852 31.9999 187.782 32.2792 187.719 32.4843C187.675 32.621 187.623 32.7529 187.562 32.8827C187.524 32.9672 187.485 33.0375 187.445 33.0927C187.405 33.1493 187.354 33.1952 187.291 33.2314C187.229 33.2676 187.159 33.29 187.084 33.2988C187.008 33.3066 186.934 33.3008 186.86 33.2807C186.701 33.2431 186.584 33.1552 186.505 33.0195C186.426 32.8808 186.406 32.7299 186.445 32.5674L187.601 27.8838C187.627 27.7842 187.635 27.6851 187.622 27.5845C187.61 27.4829 187.578 27.3892 187.529 27.3033C187.482 27.2222 187.421 27.1534 187.346 27.0982C187.27 27.0416 187.186 27.001 187.096 26.9766C187.006 26.9551 186.914 26.9497 186.821 26.962C186.727 26.9747 186.637 27.005 186.553 27.0528C186.469 27.1011 186.397 27.1622 186.336 27.2388C186.275 27.313 186.235 27.3946 186.215 27.4825L184.862 32.9132C184.809 33.1212 184.797 33.3331 184.825 33.547C184.854 33.7633 184.919 33.962 185.023 34.1427C185.13 34.3292 185.266 34.4835 185.432 34.608C185.597 34.7325 185.782 34.8204 185.981 34.8726C186.18 34.9263 186.381 34.9405 186.589 34.9161C186.796 34.8907 186.991 34.8263 187.175 34.7208C187.356 34.6173 187.511 34.4801 187.641 34.3121C187.77 34.1427 187.863 33.9591 187.918 33.7599L188.956 30.006C188.977 29.9318 189.01 29.8644 189.057 29.8039C189.105 29.7443 189.16 29.695 189.227 29.6574C189.289 29.6213 189.36 29.5988 189.438 29.589C189.516 29.5792 189.592 29.5836 189.666 29.6046C189.74 29.6232 189.809 29.6578 189.871 29.7062C189.934 29.7536 189.983 29.8087 190.018 29.8712C190.057 29.9376 190.08 30.0094 190.09 30.087C190.1 30.1646 190.095 30.2403 190.074 30.3155L189.038 34.0616C188.945 34.4132 188.785 34.7325 188.563 35.0201C188.34 35.3092 188.071 35.544 187.756 35.7247C187.44 35.9063 187.102 36.0191 186.743 36.0626C186.385 36.107 186.033 36.0812 185.686 35.9879C185.342 35.8976 185.024 35.7428 184.733 35.524C184.443 35.3077 184.205 35.0386 184.024 34.7222C183.842 34.4058 183.725 34.066 183.676 33.7041C183.627 33.3418 183.647 32.9834 183.737 32.6299L185.095 27.1802C185.153 26.9414 185.259 26.7227 185.414 26.5254C185.57 26.3296 185.758 26.167 185.978 26.041C186.196 25.916 186.426 25.8379 186.669 25.8081Z" fill="white"/>
<path d="M82.4857 32.3863C82.6839 32.4298 82.8651 32.5074 83.0277 32.6182C83.1903 32.729 83.3275 32.8702 83.4408 33.0411C83.5531 33.211 83.6288 33.398 83.6669 33.6002C83.6859 33.7027 83.6952 33.7867 83.6942 33.8517L83.7904 38.1359C83.7919 38.3361 83.7323 38.5129 83.6097 38.6676C83.5496 38.7433 83.4774 38.8068 83.3919 38.8595C83.3065 38.9098 83.2171 38.9445 83.1238 38.962C82.9309 38.9986 82.7444 38.9659 82.5637 38.8643C82.3904 38.7657 82.2683 38.6226 82.198 38.4356L80.7664 34.504C80.7327 34.4073 80.7078 34.3175 80.6927 34.2374C80.6527 34.0255 80.6512 33.8165 80.6883 33.6124C80.7259 33.4063 80.7972 33.2179 80.9036 33.047C81.0096 32.8746 81.1473 32.7306 81.3152 32.6139C81.4827 32.4962 81.6726 32.4181 81.8845 32.3781C82.0868 32.3399 82.2875 32.3428 82.4857 32.3863ZM83.7098 40.1494C83.827 40.1738 83.9359 40.2207 84.0355 40.289C84.1361 40.3574 84.2181 40.4418 84.284 40.5424C84.3494 40.6425 84.3934 40.7533 84.4163 40.8744C84.4392 40.9955 84.4383 41.1151 84.4143 41.2328C84.3889 41.35 84.343 41.4589 84.2747 41.5595C84.2063 41.6581 84.1219 41.7411 84.0218 41.8075C83.9212 41.8739 83.8104 41.9169 83.6893 41.9398C83.5677 41.9627 83.4481 41.9627 83.3304 41.9374C83.2132 41.912 83.1043 41.8656 83.0047 41.7982C82.9046 41.7294 82.8221 41.6449 82.7562 41.5448C82.6908 41.4442 82.6468 41.3329 82.6239 41.2118C82.601 41.0907 82.6019 40.9716 82.6263 40.8544C82.6512 40.7367 82.6976 40.6278 82.7659 40.5277C82.8338 40.4281 82.9182 40.3446 83.0188 40.2792C83.1189 40.2138 83.2302 40.1708 83.3518 40.1479C83.473 40.125 83.5922 40.125 83.7098 40.1494Z" fill="#F9F8F6"/>
<defs>
<radialGradient id="paint0_radial_1533_41636" cx="0" cy="0" r="1" gradientUnits="userSpaceOnUse" gradientTransform="translate(195.797 97.0584) rotate(-178.275) scale(4.65538 3.51098)">
<stop offset="0.3127" stop-color="#9B643D"/>
<stop offset="0.919" stop-color="#BA8A63" stop-opacity="0.1178"/>
<stop offset="1" stop-color="#BF8F68" stop-opacity="0"/>
</radialGradient>
<radialGradient id="paint1_radial_1533_41636" cx="0" cy="0" r="1" gradientUnits="userSpaceOnUse" gradientTransform="translate(72.9491 101.006) rotate(-7.29628) scale(13.0044)">
<stop stop-color="#591C17"/>
<stop offset="0.5455" stop-color="#7B422B" stop-opacity="0.4543"/>
<stop offset="0.9997" stop-color="#9B643D" stop-opacity="0"/>
</radialGradient>
<radialGradient id="paint2_radial_1533_41636" cx="0" cy="0" r="1" gradientUnits="userSpaceOnUse" gradientTransform="translate(80.5637 113.226) scale(6.8731)">
<stop stop-color="#591C17"/>
<stop offset="0.5453" stop-color="#7B422B"/>
<stop offset="0.9994" stop-color="#9B643D"/>
</radialGradient>
<radialGradient id="paint3_radial_1533_41636" cx="0" cy="0" r="1" gradientUnits="userSpaceOnUse" gradientTransform="translate(82.3074 106.668) rotate(-16.6427) scale(4.98675 4.74205)">
<stop stop-color="#591C17"/>
<stop offset="0.5455" stop-color="#7B422B" stop-opacity="0.4543"/>
<stop offset="0.9997" stop-color="#9B643D" stop-opacity="0"/>
</radialGradient>
</defs>
</svg>
