<svg width="300" height="220" viewBox="0 0 281 220" fill="none" xmlns="http://www.w3.org/2000/svg">
<path d="M195.997 127.947L265.011 139.922C266.644 140.206 268.197 139.112 268.48 137.479L280.455 68.4654C280.739 66.8329 279.645 65.2799 278.012 64.9967L208.999 53.0212C207.366 52.7379 205.813 53.8317 205.53 55.4641L193.554 124.478C193.271 126.11 194.365 127.664 195.997 127.947Z" fill="#B4EAF0"/>
<path d="M195.997 127.947L265.011 139.922C266.644 140.205 268.197 139.112 268.48 137.479L270.967 123.147L196.041 110.146L193.554 124.478C193.271 126.11 194.365 127.663 195.997 127.947Z" fill="#28C2D1"/>
<path d="M259.364 132.998C260.998 132.998 262.324 131.672 262.324 130.038C262.324 128.403 260.998 127.078 259.364 127.078C257.729 127.078 256.404 128.403 256.404 130.038C256.404 131.672 257.729 132.998 259.364 132.998Z" fill="#009EA6"/>
<path d="M249.377 131.265C251.012 131.265 252.337 129.94 252.337 128.305C252.337 126.67 251.012 125.345 249.377 125.345C247.743 125.345 246.417 126.67 246.417 128.305C246.417 129.94 247.743 131.265 249.377 131.265Z" fill="#009EA6"/>
<path d="M207.88 124.064C209.515 124.064 210.84 122.739 210.84 121.104C210.84 119.47 209.515 118.145 207.88 118.145C206.246 118.145 204.921 119.47 204.921 121.104C204.921 122.739 206.246 124.064 207.88 124.064Z" fill="#F9F8F6"/>
<path d="M239.589 103.703L233.818 84.0913L228.021 91.291L211.075 88.351L211.819 84.063L226.24 86.5654L235.645 74.8828L241.542 94.9262L247.949 87.6826L263.703 90.416L262.959 94.7041L249.6 92.3857L239.589 103.703Z" fill="#28C2D1"/>
<path d="M101.334 127.084L82.3701 69.3266C81.8533 67.7524 80.1581 66.8953 78.584 67.4122L56.3518 74.7119L53.8966 67.2348C53.3751 65.645 52.2653 64.3535 50.7716 63.5986C49.2794 62.8437 47.5802 62.7163 45.9913 63.2368L26.4996 69.6372C24.9098 70.1587 23.6183 71.2685 22.8629 72.7617C22.108 74.2554 21.9796 75.9531 22.5016 77.5425L24.957 85.0201L2.56494 92.3722C0.99074 92.8891 0.13364 94.5842 0.65054 96.1584L19.6146 153.916C20.1314 155.49 21.8266 156.347 23.4007 155.83L99.4197 130.87C100.994 130.353 101.851 128.658 101.334 127.084ZM28.7856 75.7568L47.7768 69.521L50.1498 76.7482L31.1586 82.9838L28.7856 75.7568Z" fill="#28C2D1"/>
<path d="M50.9924 133.365C63.0011 133.365 72.7361 123.63 72.7361 111.621C72.7361 99.6124 63.0011 89.8774 50.9924 89.8774C38.9836 89.8774 29.2487 99.6124 29.2487 111.621C29.2487 123.63 38.9836 133.365 50.9924 133.365Z" fill="#F9F8F6"/>
<path d="M51.0108 136.63C40.4957 136.63 30.6871 129.943 27.2325 119.423C22.9312 106.322 30.0904 92.1634 43.1915 87.8617C49.5362 85.7782 56.315 86.2899 62.2765 89.3041C68.238 92.3183 72.6681 97.4735 74.7521 103.82C76.8356 110.166 76.3234 116.945 73.3092 122.906C70.295 128.867 65.1403 133.297 58.7936 135.38C56.2135 136.228 53.5899 136.63 51.0108 136.63ZM33.4347 117.386C36.6134 127.067 47.0763 132.356 56.7575 129.179C61.4474 127.639 65.2565 124.365 67.4841 119.96C69.7116 115.555 70.0901 110.546 68.55 105.856C67.0104 101.166 63.7365 97.3568 59.3312 95.1297C54.9254 92.9017 49.9176 92.5228 45.2277 94.0638C35.5465 97.2425 30.256 107.705 33.4347 117.386Z" fill="#009EA6"/>
<path d="M65.1611 106.969C64.5986 105.256 62.7534 104.325 61.042 104.886L53.0754 107.502L50.4594 99.5348C49.8964 97.8224 48.0536 96.8908 46.3403 97.4518C44.6274 98.0143 43.6953 99.8585 44.2573 101.571L46.8733 109.538L38.9063 112.154C37.1934 112.716 36.2613 114.561 36.8233 116.273C37.275 117.647 38.5518 118.52 39.9239 118.52C40.2613 118.52 40.6046 118.467 40.9425 118.355L48.9096 115.74L51.5255 123.707C51.9772 125.081 53.254 125.953 54.6261 125.953C54.9635 125.953 55.3068 125.9 55.6447 125.789C57.3576 125.228 58.2897 123.383 57.7277 121.67L55.1119 113.703L63.0783 111.088C64.791 110.526 65.7231 108.681 65.1611 106.969Z" fill="#009EA6"/>
<path d="M153.08 71.8911C155.347 71.8911 157.185 70.0529 157.185 67.7854C157.185 65.5179 155.347 63.6797 153.08 63.6797C150.812 63.6797 148.974 65.5179 148.974 67.7854C148.974 70.0529 150.812 71.8911 153.08 71.8911Z" fill="#8B8CC4"/>
<path d="M127.647 83.1899C129.915 83.1899 131.753 81.3517 131.753 79.0842C131.753 76.8167 129.915 74.9785 127.647 74.9785C125.38 74.9785 123.541 76.8167 123.541 79.0842C123.541 81.3517 125.38 83.1899 127.647 83.1899Z" fill="#8B8CC4"/>
<path d="M169.457 162.846C173.992 162.236 177.175 158.066 176.566 153.53L168.334 92.2471L151.909 94.4535L160.141 155.737C160.75 160.272 164.921 163.455 169.457 162.846Z" fill="#C3C3E1"/>
<path d="M168.829 158.177C170.783 157.914 172.159 156.111 171.897 154.158L166.775 116.028L159.688 116.98L164.81 155.11C165.073 157.063 166.876 158.439 168.829 158.177Z" fill="#8B8CC4"/>
<path d="M155.963 81.006C157.537 81.006 158.813 79.73 158.813 78.1561C158.813 76.5821 157.537 75.3062 155.963 75.3062C154.389 75.3062 153.113 76.5821 153.113 78.1561C153.113 79.73 154.389 81.006 155.963 81.006Z" fill="#8B8CC4"/>
<path d="M152.318 97.499L168.743 95.2926C170.425 95.0666 171.605 93.5201 171.379 91.8382C171.153 90.1563 169.607 88.976 167.925 89.202L151.5 91.4084C149.817 91.6344 148.638 93.1809 148.864 94.8628C149.089 96.5446 150.636 97.725 152.318 97.499Z" fill="#C3C3E1"/>
<path d="M138.915 166.949C143.45 166.339 146.633 162.169 146.024 157.633L137.792 96.3501L121.367 98.5565L129.599 159.84C130.209 164.375 134.379 167.558 138.915 166.949Z" fill="#C3C3E1"/>
<path d="M138.287 162.279C140.241 162.017 141.618 160.214 141.355 158.26L136.233 120.131L129.146 121.083L134.268 159.212C134.531 161.166 136.334 162.541 138.287 162.279Z" fill="#8B8CC4"/>
<path d="M183.007 107.293C184.557 106.957 185.613 105.481 185.398 103.882C185.172 102.2 183.625 101.02 181.943 101.246L110.614 110.828C108.931 111.053 107.751 112.601 107.978 114.282C108.204 115.964 109.751 117.144 111.433 116.918L182.762 107.336C182.844 107.325 182.927 107.311 183.007 107.293Z" fill="#8B8CC4"/>
<path d="M121.776 101.602L138.201 99.3952C139.883 99.1692 141.063 97.6227 140.837 95.9408C140.611 94.2589 139.065 93.0786 137.383 93.3046L120.958 95.511C119.276 95.737 118.096 97.2835 118.322 98.9654C118.548 100.647 120.094 101.828 121.776 101.602Z" fill="#C3C3E1"/>
</svg>
